<svg width="240" height="195" viewBox="0 0 240 195" fill="none" xmlns="http://www.w3.org/2000/svg">
<path fill-rule="evenodd" clip-rule="evenodd" d="M0 0H240V220H0V0Z" fill="#FFFCF2"/>
<path fill-rule="evenodd" clip-rule="evenodd" d="M39.7385 104.906H44.7301L83.0779 43.3891L80.9388 39.9753H80.2254L39.7385 104.906ZM48.2961 104.906H53.208C64.595 86.7162 75.9516 68.5103 87.2776 50.2885L84.821 46.2219C72.6191 65.8312 60.4184 85.3687 48.2961 104.906ZM56.774 104.906H61.6859C71.6624 89.0004 81.5925 73.0703 91.4761 57.116L89.0195 53.1213C78.2457 70.4069 67.549 87.6925 56.774 104.906ZM65.2506 104.906H70.2422C78.72 91.3242 87.1979 77.6704 95.6758 64.0154L93.2192 60.0207C83.8698 74.9825 74.6 89.9443 65.2506 104.906ZM73.7284 104.906H78.72C85.7723 93.5761 92.8233 82.246 99.9539 70.8429L97.4189 66.8482C89.5693 79.5588 81.6725 92.2449 73.7284 104.906Z" fill="black" fill-opacity="0.26"/>
<path fill-rule="evenodd" clip-rule="evenodd" d="M73.7284 104.906H78.72C85.7723 93.5761 92.8233 82.246 99.9539 70.8429L97.4189 66.8482C89.5693 79.5588 81.6725 92.2449 73.7284 104.906ZM82.2063 104.906H87.1979C92.8233 95.8998 98.5283 86.8205 104.154 77.7423L101.697 73.7476L82.2063 104.906ZM90.7639 104.906H95.6758C99.8767 98.1517 104.155 91.3972 108.353 84.6428L105.898 80.5751C100.84 88.6783 95.7949 96.7886 90.7639 104.906ZM99.2417 104.906H104.155C107.007 100.475 109.78 95.9729 112.553 91.4691L110.097 87.4745C106.452 93.285 102.886 99.0956 99.2417 104.906ZM107.72 104.906H112.711L116.752 98.3697L114.295 94.375C112.077 97.8618 109.937 101.419 107.72 104.906ZM116.197 104.906H120.792L118.495 101.201L116.197 104.906ZM125.783 104.906L164.131 43.3891L161.992 39.9753H161.279L123.566 100.475L125.783 104.906ZM129.271 104.906H134.261C145.592 86.6755 157.002 68.5191 168.331 50.2885L165.874 46.2219C153.675 65.8312 141.472 85.3687 129.271 104.906ZM137.826 104.906H142.738C152.643 89.0004 162.626 73.0936 172.531 57.116L170.074 53.1213C159.299 70.4069 148.524 87.6925 137.826 104.906ZM146.304 104.906H151.216C159.773 91.3242 168.251 77.6704 176.73 64.0154L174.271 60.0207C164.924 74.9825 155.655 89.9443 146.304 104.906ZM154.783 104.906H159.773C166.826 93.5761 173.878 82.246 180.928 70.8429L178.471 66.8482C170.55 79.5593 162.707 92.2681 154.783 104.906Z" fill="black" fill-opacity="0.26"/>
<path fill-rule="evenodd" clip-rule="evenodd" d="M154.783 104.906H159.773C166.826 93.5761 173.878 82.246 180.928 70.8429L178.471 66.8482C170.55 79.5593 162.707 92.2681 154.783 104.906ZM163.261 104.906H168.251C173.879 95.8998 179.503 86.8205 185.208 77.7423L182.672 73.7476C176.255 84.1338 169.757 94.5199 163.261 104.906ZM171.739 104.906H176.732C180.926 98.1357 185.151 91.3812 189.407 84.6428L186.953 80.5751C181.879 88.7094 176.809 96.8437 171.739 104.906ZM180.296 104.906H185.208C187.981 100.475 190.834 95.9729 193.605 91.4691L191.149 87.4745C187.507 93.285 183.861 99.0956 180.296 104.906ZM188.773 104.906H193.685C195.112 102.726 196.458 100.547 197.805 98.3697L195.348 94.375C193.127 97.8696 190.935 101.38 188.773 104.906ZM197.251 104.906H201.846L199.549 101.201L197.251 104.906ZM84.4263 39.9753H89.4167L127.766 101.492L125.783 104.906L84.4263 39.9753ZM92.9814 39.9753H97.8933C109.224 58.206 120.634 76.4343 131.963 94.6649L129.506 98.6596C117.302 79.1135 105.127 59.5521 92.9814 39.9753ZM101.459 39.9753H106.371C116.354 55.881 126.258 71.8587 136.163 87.7655L133.706 91.7602C122.931 74.5465 112.236 57.2609 101.459 39.9753ZM109.937 39.9753H114.929C123.408 53.6292 131.886 67.2842 140.362 80.865L137.906 84.9327C128.556 69.899 119.287 54.9372 109.937 39.9753ZM118.415 39.9753H123.408C130.458 51.3043 137.51 62.6355 144.64 74.0375L142.107 78.0322C134.261 65.3233 126.339 52.6864 118.415 39.9753Z" fill="black" fill-opacity="0.26"/>
<path fill-rule="evenodd" clip-rule="evenodd" d="M118.415 39.9753H123.408C130.458 51.3043 137.51 62.6355 144.64 74.0375L142.107 78.0322C134.261 65.3233 126.339 52.6864 118.415 39.9753ZM126.893 39.9753H131.886C137.507 49.0453 143.159 58.0996 148.84 67.1381L146.384 71.2047C139.904 60.7859 133.407 50.3761 126.893 39.9753ZM135.45 39.9753H140.362C144.562 46.7298 148.84 53.4842 153.04 60.3117L150.583 64.3064C145.513 56.1721 140.441 48.1097 135.45 39.9753ZM143.928 39.9753H148.84C151.693 44.4779 154.466 48.9086 157.24 53.4112L154.783 57.4059C151.139 51.5965 147.493 45.7859 143.928 39.9753ZM152.405 39.9753H157.398C158.742 42.1542 160.092 44.333 161.437 46.5118L158.983 50.5784C156.763 47.0208 154.626 43.4621 152.405 39.9753ZM3.52861 121.611H11.5321L25.1597 153.931L38.5495 121.611H46.553V160.613H41.3235V128.146L27.8541 160.613H22.7828L9.1552 128.146V160.613H3.52861V121.611ZM56.6146 121.611H62.3993V160.613H56.6146V121.611ZM71.9853 121.611H77.6107V155.964H94.0908V160.613H71.9853V121.611ZM96.7852 121.611H102.411V155.964H118.969V160.613H96.7852V121.611ZM121.665 121.611H127.447V160.613H121.665V121.611ZM137.588 121.611H143.215V140.639L161.992 121.537L169.359 121.611L150.822 139.914L168.409 160.613H160.962L146.7 143.762L143.215 146.885V160.613H137.588V121.611ZM172.689 121.611H202.798V126.258H178.552V138.677H200.896V143.109H178.552V155.964H202.798V160.613H172.689V121.611ZM205.332 121.611H211.037L230.924 153.204V121.611H236.471V160.613H229.894L210.482 129.381V160.613H205.332V121.611Z" fill="black" fill-opacity="0.26"/>
</svg>
