<svg width="64" height="65" viewBox="0 0 64 65" fill="none" xmlns="http://www.w3.org/2000/svg">
<path d="M31 11.5V15.5815C30.3391 15.6858 29.6731 15.8875 29 16.1602V13.5H27V17.145C26.7878 17.265 26.5747 17.3891 26.3606 17.5175C25.9109 17.7875 25.4569 18.0775 25 18.3806V15.5H23V19.7738C22.3345 20.255 21.667 20.752 21 21.2515V19.5H19V22.7456C18.3247 23.2466 17.6562 23.7331 17 24.1946V21.5H15V25.5266C14.87 25.6075 14.7388 25.6906 14.6106 25.7676C14.0546 26.1014 13.5149 26.393 13 26.6379V25.5H11V27.3716C10.6388 27.4554 10.3031 27.5 10 27.5H9V23.5H3V61.5H9V29.5H10C10.3323 29.5 10.6655 29.4713 11 29.4185V61.5H13V28.8396C13.659 28.5724 14.325 28.2371 15 27.855V61.5H17V26.6194C17.6617 26.1804 18.3296 25.7114 19 25.2264V61.5H21V43.5H23V61.5H25V20.8054C25.6828 20.3256 26.3512 19.877 27 19.4734V37.5H29V18.3622C29.7241 18.018 30.3985 17.7679 31 17.6285V37.5H33V17.6284C33.6015 17.7679 34.2759 18.018 35 18.3621V37.5H37V19.4734C37.6488 19.8771 38.3172 20.3256 39 20.8054V61.5H41V43.5H43V61.5H45V25.2262C45.6704 25.7112 46.3382 26.1804 47 26.6194V61.5H49V27.855C49.675 28.237 50.341 28.5725 51 28.8396V61.5H53V29.4185C53.3345 29.4713 53.6678 29.5 54 29.5H55V61.5H61V23.5H55V27.5H54C53.6969 27.5 53.3613 27.4554 53 27.3716V25.5H51V26.6378C50.485 26.3928 49.9454 26.1012 49.3894 25.7677C49.2611 25.6906 49.13 25.6075 49 25.5265V21.5H47V24.1946C46.3435 23.7334 45.6753 23.2466 45 22.7456V19.5H43V21.2515C42.333 20.752 41.6655 20.2552 41 19.7736V15.5H39V18.3806C38.5433 18.0776 38.0891 17.7874 37.6394 17.5176C37.4252 17.3893 37.2122 17.2651 37 17.1451V13.5H35V16.1604C34.3269 15.8875 33.6609 15.6858 33 15.5816V11.5H31ZM6 15.5C4.33125 15.5 3 16.8313 3 18.5C3 20.1687 4.33125 21.5 6 21.5C7.66875 21.5 9 20.1687 9 18.5C9 16.8313 7.66875 15.5 6 15.5ZM58 15.5C56.3312 15.5 55 16.8313 55 18.5C55 20.1687 56.3312 21.5 58 21.5C59.6688 21.5 61 20.1687 61 18.5C61 16.8313 59.6688 15.5 58 15.5ZM23 22.2544V41.5H21V23.7485C21.2 23.5988 21.4004 23.4497 21.6 23.3C22.0688 22.9487 22.5355 22.599 23 22.2544ZM41 22.2544C41.4645 22.599 41.9313 22.9487 42.4 23.3C42.5996 23.45 42.8 23.5988 43 23.7485V41.5H41V22.2544ZM27 39.5V43.5H37V39.5H27ZM27 45.5V61.5H29V45.5H27ZM31 45.5V61.5H33V45.5H31ZM35 45.5V61.5H37V45.5H35Z" fill="#EB5E28"/>
</svg>
