<svg width="64" height="65" viewBox="0 0 64 65" fill="none" xmlns="http://www.w3.org/2000/svg">
<path d="M11.3684 55.2369H52.6316V29.8574C52 29.5344 51.2909 29.1334 50.6754 28.6582C48.9208 30.0127 46.7587 30.7814 44.456 30.7814C42.165 30.7814 40.0027 30.0197 38.2518 28.6765C37.0688 29.5957 35.6602 30.246 34.1806 30.574L11.3684 53.3557V55.2369Z" fill="#EB5E28"/>
<path d="M11.3684 48.8894L29.7236 30.5692C28.2526 30.2401 26.9002 29.5932 25.7234 28.6797C25.2459 29.0462 24.7103 29.3681 24.1766 29.6445L11.3684 42.4266V48.8894Z" fill="#EB5E28"/>
<path d="M55.5789 30.6985V56.7107C55.5789 57.5246 54.9892 58.1844 54.1753 58.1844H9.9648C9.1509 58.1844 8.42101 57.5246 8.42101 56.7107V30.7098C7.99996 30.777 7.46859 30.8136 6.98248 30.8136C5.86732 30.8136 4.84206 30.6322 3.78943 30.3014V58.4435C3.78943 60.742 5.7229 62.6054 8.02122 62.6054H56.1191C58.4174 62.6054 60.2107 60.742 60.2107 58.4435V30.2305C59.1581 30.5913 58.0303 30.781 56.8774 30.781C56.4393 30.781 56 30.7528 55.5789 30.6985Z" fill="#EB5E28"/>
<path d="M11.3684 29.8189V37.9604L18.6128 30.7511C16.6389 30.5829 14.7707 29.8522 13.2425 28.6758C12.6659 29.1225 12 29.5048 11.3684 29.8189Z" fill="#EB5E28"/>
<path d="M8.74362 12.6971C7.66257 11.4851 6.67646 9.6112 6.43288 8.66509C6.03646 7.12614 6.96257 5.55772 8.50109 5.1613C10.04 4.76467 11.6089 5.69078 12.0049 7.22951C12.304 8.39035 12.3 11.315 11.6196 12.852C14.8508 12.8167 18.2101 12.0975 21.6661 10.6874C27.9824 8.11035 33.3348 7.19835 38.0299 7.90088C42.1293 8.51372 44.991 10.2495 47.2906 11.6442C47.6619 11.8693 48.0221 12.0878 48.3748 12.2939C49.5301 12.968 50.7573 13.6836 52.0885 14.2847C51.7419 12.6712 51.8628 10.4285 52.1529 9.45604C52.6076 7.93351 54.2101 7.06783 55.7329 7.52214C57.2556 7.97667 58.1215 9.5792 57.6668 11.1017C57.3659 12.1093 56.1655 14.1586 54.9466 15.2988C57.1278 15.8468 59.5798 15.919 62.4049 15.0205C61.4918 11.8042 60.3838 7.90235 59.6405 5.28151C59.1466 3.53983 57.5588 2.39478 55.7485 2.39478H55.6491H8.35625C6.56467 2.39478 4.98383 3.5213 4.47625 5.23962C4.00214 6.84509 3.3832 8.93793 2.75793 11.0605C3.52151 11.4034 4.4093 11.7426 5.41541 12.0308C6.50551 12.3432 7.61625 12.5615 8.74362 12.6971Z" fill="#EB5E28"/>
<path d="M63.2682 18.0627C61.4518 18.6326 59.7564 18.8696 58.1762 18.8696C53.3787 18.8698 49.6408 16.6886 46.7834 15.0212C46.4156 14.8067 46.0398 14.5789 45.6526 14.3442C42.9834 12.7252 39.9181 10.8673 35.0488 10.8237C36.2097 11.69 37.3173 12.8692 37.7387 13.5713C38.5566 14.9338 38.1152 16.701 36.7528 17.5189C35.3903 18.3368 33.6232 17.8955 32.8053 16.533C32.1939 15.5145 31.3745 12.7511 31.5688 11.0789C29.0966 11.4465 26.2318 12.2349 22.8592 13.6111C21.7575 14.0608 20.6872 14.433 19.6478 14.7423C20.2804 16.2774 19.9931 19.4103 19.5632 20.5888C19.0187 22.0816 17.3674 22.8505 15.8745 22.306C14.3817 21.7616 13.6128 20.1103 14.1573 18.6174C14.4238 17.8867 15.2156 16.6168 16.1297 15.5736C11.1876 16.4359 7.16863 15.841 4.36611 15.0143C3.44358 14.742 2.60737 14.4332 1.85916 14.1147C0.843369 17.578 0 20.4894 0 20.6227C0 24.5178 3.15747 27.649 7.05263 27.649C9.75832 27.649 12.1067 26.1117 13.2895 23.8757C14.4722 26.1117 16.8206 27.6294 19.5263 27.6294C22.2248 27.6294 24.5682 26.1103 25.7541 23.8839C26.9339 26.1292 29.2874 27.6604 32 27.6604C34.7126 27.6604 37.0661 26.1282 38.2459 23.8829C39.4318 26.1092 41.7752 27.6265 44.4737 27.6265C47.1794 27.6265 49.5278 26.1052 50.7105 23.8694C51.8933 26.1052 54.2417 27.6362 56.9474 27.6362C60.8425 27.6362 64 24.5442 64 20.6492C64 20.6435 63.7105 19.621 63.2682 18.0627Z" fill="#EB5E28"/>
</svg>
