<svg width="64" height="65" viewBox="0 0 64 65" fill="none" xmlns="http://www.w3.org/2000/svg">
<path d="M53.3333 53.8333H50.6667V8.49992C50.6667 7.79267 50.3857 7.1144 49.8856 6.6143C49.3855 6.1142 48.7072 5.83325 48 5.83325H16C15.2928 5.83325 14.6145 6.1142 14.1144 6.6143C13.6143 7.1144 13.3333 7.79267 13.3333 8.49992V53.8333H10.6667C9.95942 53.8333 9.28115 54.1142 8.78105 54.6143C8.28095 55.1144 8 55.7927 8 56.4999C8 57.2072 8.28095 57.8854 8.78105 58.3855C9.28115 58.8856 9.95942 59.1666 10.6667 59.1666H53.3333C54.0406 59.1666 54.7189 58.8856 55.219 58.3855C55.7191 57.8854 56 57.2072 56 56.4999C56 55.7927 55.7191 55.1144 55.219 54.6143C54.7189 54.1142 54.0406 53.8333 53.3333 53.8333ZM18.6667 29.8333C18.6667 29.126 18.9476 28.4477 19.4477 27.9476C19.9478 27.4475 20.6261 27.1666 21.3333 27.1666C22.0406 27.1666 22.7189 27.4475 23.219 27.9476C23.719 28.4477 24 29.126 24 29.8333V35.1666C24 35.8738 23.719 36.5521 23.219 37.0522C22.7189 37.5523 22.0406 37.8333 21.3333 37.8333C20.6261 37.8333 19.9478 37.5523 19.4477 37.0522C18.9476 36.5521 18.6667 35.8738 18.6667 35.1666V29.8333Z" fill="#EB5E28"/>
</svg>
