<svg width="24" height="25" viewBox="0 0 24 25" fill="none" xmlns="http://www.w3.org/2000/svg">
<path d="M19.05 5.40999C18.1331 4.4841 17.0411 3.74996 15.8376 3.25036C14.634 2.75075 13.3431 2.49568 12.04 2.49999C6.58005 2.49999 2.13005 6.94999 2.13005 12.41C2.13005 14.16 2.59005 15.86 3.45005 17.36L2.05005 22.5L7.30005 21.12C8.75005 21.91 10.38 22.33 12.04 22.33C17.5 22.33 21.9501 17.88 21.9501 12.42C21.9501 9.76999 20.92 7.27999 19.05 5.40999ZM12.04 20.65C10.56 20.65 9.11005 20.25 7.84005 19.5L7.54005 19.32L4.42005 20.14L5.25005 17.1L5.05005 16.79C4.2276 15.4771 3.79097 13.9593 3.79005 12.41C3.79005 7.86999 7.49005 4.16999 12.03 4.16999C14.23 4.16999 16.3 5.02999 17.85 6.58999C18.6177 7.35386 19.226 8.26254 19.6397 9.26332C20.0534 10.2641 20.2642 11.3371 20.26 12.42C20.2801 16.96 16.58 20.65 12.04 20.65ZM16.56 14.49C16.31 14.37 15.09 13.77 14.87 13.68C14.64 13.6 14.48 13.56 14.31 13.8C14.14 14.05 13.67 14.61 13.53 14.77C13.39 14.94 13.24 14.96 12.99 14.83C12.74 14.71 11.94 14.44 11 13.6C10.26 12.94 9.77005 12.13 9.62005 11.88C9.48005 11.63 9.60005 11.5 9.73005 11.37C9.84005 11.26 9.98005 11.08 10.1 10.94C10.22 10.8 10.27 10.69 10.35 10.53C10.43 10.36 10.39 10.22 10.33 10.1C10.27 9.97999 9.77005 8.75999 9.57005 8.25999C9.37005 7.77999 9.16005 7.83999 9.01005 7.82999H8.53005C8.36005 7.82999 8.10005 7.88999 7.87005 8.13999C7.65005 8.38999 7.01005 8.98999 7.01005 10.21C7.01005 11.43 7.90005 12.61 8.02005 12.77C8.14005 12.94 9.77005 15.44 12.25 16.51C12.84 16.77 13.3 16.92 13.66 17.03C14.25 17.22 14.79 17.19 15.22 17.13C15.7 17.06 16.69 16.53 16.89 15.95C17.1 15.37 17.1 14.88 17.03 14.77C16.96 14.66 16.81 14.61 16.56 14.49Z" fill="#4D4D4D"/>
</svg>
